<svg width="224" height="56" viewBox="0 0 224 56" fill="none" xmlns="http://www.w3.org/2000/svg">
<path opacity="0.5" d="M51.26 40.27L48.04 46.472V50H46.444V46.472L43.21 40.27H44.988L47.242 45.044L49.496 40.27H51.26ZM55.8726 50.126C55.1446 50.126 54.4866 49.9627 53.8986 49.636C53.3106 49.3 52.8486 48.8333 52.5126 48.236C52.1766 47.6293 52.0086 46.9293 52.0086 46.136C52.0086 45.352 52.1812 44.6567 52.5266 44.05C52.8719 43.4433 53.3432 42.9767 53.9406 42.65C54.5379 42.3233 55.2052 42.16 55.9426 42.16C56.6799 42.16 57.3472 42.3233 57.9446 42.65C58.5419 42.9767 59.0132 43.4433 59.3586 44.05C59.7039 44.6567 59.8766 45.352 59.8766 46.136C59.8766 46.92 59.6992 47.6153 59.3446 48.222C58.9899 48.8287 58.5046 49.3 57.8886 49.636C57.2819 49.9627 56.6099 50.126 55.8726 50.126ZM55.8726 48.74C56.2832 48.74 56.6659 48.642 57.0206 48.446C57.3846 48.25 57.6786 47.956 57.9026 47.564C58.1266 47.172 58.2386 46.696 58.2386 46.136C58.2386 45.576 58.1312 45.1047 57.9166 44.722C57.7019 44.33 57.4172 44.036 57.0626 43.84C56.7079 43.644 56.3252 43.546 55.9146 43.546C55.5039 43.546 55.1212 43.644 54.7666 43.84C54.4212 44.036 54.1459 44.33 53.9406 44.722C53.7352 45.1047 53.6326 45.576 53.6326 46.136C53.6326 46.9667 53.8426 47.6107 54.2626 48.068C54.6919 48.516 55.2286 48.74 55.8726 48.74ZM68.4403 42.286V50H66.8443V49.09C66.5923 49.4073 66.261 49.6593 65.8503 49.846C65.449 50.0233 65.0196 50.112 64.5623 50.112C63.9556 50.112 63.4096 49.986 62.9243 49.734C62.4483 49.482 62.0703 49.1087 61.7903 48.614C61.5196 48.1193 61.3843 47.522 61.3843 46.822V42.286H62.9663V46.584C62.9663 47.2747 63.139 47.8067 63.4843 48.18C63.8296 48.544 64.301 48.726 64.8983 48.726C65.4956 48.726 65.967 48.544 66.3123 48.18C66.667 47.8067 66.8443 47.2747 66.8443 46.584V42.286H68.4403ZM72.1421 43.406C72.3754 43.014 72.6834 42.7107 73.0661 42.496C73.4581 42.272 73.9201 42.16 74.4521 42.16V43.812H74.0461C73.4208 43.812 72.9448 43.9707 72.6181 44.288C72.3008 44.6053 72.1421 45.156 72.1421 45.94V50H70.5461V42.286H72.1421V43.406ZM85.4219 48.012H81.3479L80.6479 50H78.9819L82.4679 40.256H84.3159L87.8019 50H86.1219L85.4219 48.012ZM84.9739 46.71L83.3919 42.188L81.7959 46.71H84.9739ZM88.7856 46.136C88.7856 45.3427 88.9442 44.6473 89.2616 44.05C89.5882 43.4433 90.0362 42.9767 90.6056 42.65C91.1749 42.3233 91.8282 42.16 92.5656 42.16C93.4989 42.16 94.2689 42.384 94.8756 42.832C95.4916 43.2707 95.9069 43.9007 96.1216 44.722H94.3996C94.2596 44.3393 94.0356 44.0407 93.7276 43.826C93.4196 43.6113 93.0322 43.504 92.5656 43.504C91.9122 43.504 91.3896 43.7373 90.9976 44.204C90.6149 44.6613 90.4236 45.3053 90.4236 46.136C90.4236 46.9667 90.6149 47.6153 90.9976 48.082C91.3896 48.5487 91.9122 48.782 92.5656 48.782C93.4896 48.782 94.1009 48.376 94.3996 47.564H96.1216C95.8976 48.348 95.4776 48.9733 94.8616 49.44C94.2456 49.8973 93.4802 50.126 92.5656 50.126C91.8282 50.126 91.1749 49.9627 90.6056 49.636C90.0362 49.3 89.5882 48.8333 89.2616 48.236C88.9442 47.6293 88.7856 46.9293 88.7856 46.136ZM99.5741 43.588V47.858C99.5741 48.1473 99.6394 48.3573 99.7701 48.488C99.9101 48.6093 100.143 48.67 100.47 48.67H101.45V50H100.19C99.4714 50 98.9208 49.832 98.5381 49.496C98.1554 49.16 97.9641 48.614 97.9641 47.858V43.588H97.0541V42.286H97.9641V40.368H99.5741V42.286H101.45V43.588H99.5741ZM103.733 41.264C103.444 41.264 103.201 41.166 103.005 40.97C102.809 40.774 102.711 40.5313 102.711 40.242C102.711 39.9527 102.809 39.71 103.005 39.514C103.201 39.318 103.444 39.22 103.733 39.22C104.013 39.22 104.251 39.318 104.447 39.514C104.643 39.71 104.741 39.9527 104.741 40.242C104.741 40.5313 104.643 40.774 104.447 40.97C104.251 41.166 104.013 41.264 103.733 41.264ZM104.517 42.286V50H102.921V42.286H104.517ZM109.595 48.572L111.779 42.286H113.472L110.533 50H108.629L105.703 42.286H107.41L109.595 48.572ZM115.491 41.264C115.202 41.264 114.959 41.166 114.763 40.97C114.567 40.774 114.469 40.5313 114.469 40.242C114.469 39.9527 114.567 39.71 114.763 39.514C114.959 39.318 115.202 39.22 115.491 39.22C115.771 39.22 116.009 39.318 116.205 39.514C116.401 39.71 116.499 39.9527 116.499 40.242C116.499 40.5313 116.401 40.774 116.205 40.97C116.009 41.166 115.771 41.264 115.491 41.264ZM116.275 42.286V50H114.679V42.286H116.275ZM120.232 43.588V47.858C120.232 48.1473 120.298 48.3573 120.428 48.488C120.568 48.6093 120.802 48.67 121.128 48.67H122.108V50H120.848C120.13 50 119.579 49.832 119.196 49.496C118.814 49.16 118.622 48.614 118.622 47.858V43.588H117.712V42.286H118.622V40.368H120.232V42.286H122.108V43.588H120.232ZM130.523 42.286L125.791 53.626H124.139L125.707 49.874L122.669 42.286H124.447L126.617 48.166L128.871 42.286H130.523Z" fill="black"/>
<path d="M52.98 19.52H47.74L46.9 22H43.32L48.4 7.96H52.36L57.44 22H53.82L52.98 19.52ZM52.1 16.88L50.36 11.74L48.64 16.88H52.1ZM58.3061 16.42C58.3061 15.26 58.5394 14.2467 59.0061 13.38C59.4861 12.5133 60.1461 11.8467 60.9861 11.38C61.8394 10.9133 62.8128 10.68 63.9061 10.68C65.3061 10.68 66.4728 11.0467 67.4061 11.78C68.3528 12.5133 68.9728 13.5467 69.2661 14.88H65.6261C65.3194 14.0267 64.7261 13.6 63.8461 13.6C63.2194 13.6 62.7194 13.8467 62.3461 14.34C61.9728 14.82 61.7861 15.5133 61.7861 16.42C61.7861 17.3267 61.9728 18.0267 62.3461 18.52C62.7194 19 63.2194 19.24 63.8461 19.24C64.7261 19.24 65.3194 18.8133 65.6261 17.96H69.2661C68.9728 19.2667 68.3528 20.2933 67.4061 21.04C66.4594 21.7867 65.2928 22.16 63.9061 22.16C62.8128 22.16 61.8394 21.9267 60.9861 21.46C60.1461 20.9933 59.4861 20.3267 59.0061 19.46C58.5394 18.5933 58.3061 17.58 58.3061 16.42ZM77.3155 19.1V22H75.5755C74.3355 22 73.3688 21.7 72.6755 21.1C71.9821 20.4867 71.6355 19.4933 71.6355 18.12V13.68H70.2755V10.84H71.6355V8.12H75.0555V10.84H77.2955V13.68H75.0555V18.16C75.0555 18.4933 75.1355 18.7333 75.2955 18.88C75.4555 19.0267 75.7221 19.1 76.0955 19.1H77.3155ZM80.9405 9.68C80.3405 9.68 79.8471 9.50667 79.4605 9.16C79.0871 8.8 78.9005 8.36 78.9005 7.84C78.9005 7.30667 79.0871 6.86667 79.4605 6.52C79.8471 6.16 80.3405 5.98 80.9405 5.98C81.5271 5.98 82.0071 6.16 82.3805 6.52C82.7671 6.86667 82.9605 7.30667 82.9605 7.84C82.9605 8.36 82.7671 8.8 82.3805 9.16C82.0071 9.50667 81.5271 9.68 80.9405 9.68ZM82.6405 10.84V22H79.2205V10.84H82.6405ZM90.1389 18.8L92.5589 10.84H96.1989L92.2389 22H88.0189L84.0589 10.84H87.7189L90.1389 18.8ZM99.3584 9.68C98.7584 9.68 98.2651 9.50667 97.8784 9.16C97.5051 8.8 97.3184 8.36 97.3184 7.84C97.3184 7.30667 97.5051 6.86667 97.8784 6.52C98.2651 6.16 98.7584 5.98 99.3584 5.98C99.9451 5.98 100.425 6.16 100.798 6.52C101.185 6.86667 101.378 7.30667 101.378 7.84C101.378 8.36 101.185 8.8 100.798 9.16C100.425 9.50667 99.9451 9.68 99.3584 9.68ZM101.058 10.84V22H97.6384V10.84H101.058ZM109.757 19.1V22H108.017C106.777 22 105.81 21.7 105.117 21.1C104.424 20.4867 104.077 19.4933 104.077 18.12V13.68H102.717V10.84H104.077V8.12H107.497V10.84H109.737V13.68H107.497V18.16C107.497 18.4933 107.577 18.7333 107.737 18.88C107.897 19.0267 108.164 19.1 108.537 19.1H109.757ZM123.062 10.84L116.062 27.3H112.382L114.942 21.62L110.402 10.84H114.222L116.802 17.82L119.362 10.84H123.062Z" fill="black"/>
<g opacity="0.5">
<circle cx="171" cy="40" r="9.5" stroke="black"/>
<circle cx="171" cy="40" r="1.5" stroke="black"/>
</g>
<rect y="3" width="3" height="50" rx="1.5" fill="#E3E3E3"/>
<rect x="221" y="3" width="3" height="50" rx="1.5" fill="#E3E3E3"/>
</svg>
