<svg width="110" height="56" viewBox="0 0 110 56" fill="none" xmlns="http://www.w3.org/2000/svg">
<rect x="93.3333" y="39.4737" width="1.11111" height="1.05263" fill="#808080"/>
<rect x="104.444" y="39.4737" width="1.11111" height="1.05263" fill="#808080"/>
<rect x="102.222" y="39.4737" width="1.11111" height="1.05263" fill="#808080"/>
<rect x="100" y="39.4737" width="1.11111" height="1.05263" fill="#808080"/>
<rect x="97.7778" y="39.4737" width="1.11111" height="1.05263" fill="#808080"/>
<rect x="95.5557" y="39.4737" width="1.11111" height="1.05263" fill="#808080"/>
<rect x="93.3333" y="45.7895" width="1.11111" height="1.05263" fill="#808080"/>
<rect x="104.444" y="45.7895" width="1.11111" height="1.05263" fill="#808080"/>
<rect x="102.222" y="45.7895" width="1.11111" height="1.05263" fill="#808080"/>
<rect x="100" y="45.7895" width="1.11111" height="1.05263" fill="#808080"/>
<rect x="97.7778" y="45.7895" width="1.11111" height="1.05263" fill="#808080"/>
<rect x="95.5557" y="45.7895" width="1.11111" height="1.05263" fill="#808080"/>
<rect x="93.3333" y="41.5789" width="1.11111" height="1.05263" fill="#808080"/>
<rect x="104.444" y="41.5789" width="1.11111" height="1.05263" fill="#808080"/>
<rect x="102.222" y="41.5789" width="1.11111" height="1.05263" fill="#808080"/>
<rect x="100" y="41.5789" width="1.11111" height="1.05263" fill="#808080"/>
<rect x="97.7778" y="41.5789" width="1.11111" height="1.05263" fill="#808080"/>
<rect x="95.5557" y="41.5789" width="1.11111" height="1.05263" fill="#808080"/>
<rect x="93.3333" y="43.6842" width="1.11111" height="1.05263" fill="#808080"/>
<rect x="104.444" y="43.6842" width="1.11111" height="1.05263" fill="#808080"/>
<rect x="102.222" y="43.6842" width="1.11111" height="1.05263" fill="#808080"/>
<rect x="100" y="43.6842" width="1.11111" height="1.05263" fill="#808080"/>
<rect x="97.7778" y="43.6842" width="1.11111" height="1.05263" fill="#808080"/>
<rect x="95.5557" y="43.6842" width="1.11111" height="1.05263" fill="#808080"/>
<rect x="90.5" y="31.5526" width="19" height="17.9474" rx="1.5" stroke="#808080"/>
<path d="M90.5 36.8158H109.5V48C109.5 48.8284 108.828 49.5 108 49.5H92C91.1716 49.5 90.5 48.8284 90.5 48V36.8158Z" stroke="#808080"/>
<line x1="96.0557" y1="30" x2="96.0557" y2="34.2105" stroke="#808080"/>
<line x1="104.944" y1="30" x2="104.944" y2="34.2105" stroke="#808080"/>
<path opacity="0.5" d="M4.256 50.098C3.60267 50.098 3.01467 49.986 2.492 49.762C1.96933 49.5287 1.55867 49.202 1.26 48.782C0.961333 48.362 0.812 47.872 0.812 47.312H2.52C2.55733 47.732 2.72067 48.0773 3.01 48.348C3.30867 48.6187 3.724 48.754 4.256 48.754C4.80667 48.754 5.236 48.6233 5.544 48.362C5.852 48.0913 6.006 47.746 6.006 47.326C6.006 46.9993 5.908 46.7333 5.712 46.528C5.52533 46.3227 5.28733 46.164 4.998 46.052C4.718 45.94 4.326 45.8187 3.822 45.688C3.18733 45.52 2.66933 45.352 2.268 45.184C1.876 45.0067 1.54 44.736 1.26 44.372C0.98 44.008 0.84 43.5227 0.84 42.916C0.84 42.356 0.98 41.866 1.26 41.446C1.54 41.026 1.932 40.704 2.436 40.48C2.94 40.256 3.52333 40.144 4.186 40.144C5.12867 40.144 5.89867 40.382 6.496 40.858C7.10267 41.3247 7.43867 41.9687 7.504 42.79H5.74C5.712 42.4353 5.544 42.132 5.236 41.88C4.928 41.628 4.522 41.502 4.018 41.502C3.56067 41.502 3.18733 41.6187 2.898 41.852C2.60867 42.0853 2.464 42.4213 2.464 42.86C2.464 43.1587 2.55267 43.406 2.73 43.602C2.91667 43.7887 3.15 43.938 3.43 44.05C3.71 44.162 4.09267 44.2833 4.578 44.414C5.222 44.5913 5.74467 44.7687 6.146 44.946C6.55667 45.1233 6.902 45.3987 7.182 45.772C7.47133 46.136 7.616 46.626 7.616 47.242C7.616 47.7367 7.48067 48.2033 7.21 48.642C6.94867 49.0807 6.56133 49.4353 6.048 49.706C5.544 49.9673 4.94667 50.098 4.256 50.098ZM16.5692 45.954C16.5692 46.2433 16.5506 46.5047 16.5132 46.738H10.6192C10.6659 47.354 10.8946 47.8487 11.3052 48.222C11.7159 48.5953 12.2199 48.782 12.8172 48.782C13.6759 48.782 14.2826 48.4227 14.6372 47.704H16.3592C16.1259 48.4133 15.7012 48.9967 15.0852 49.454C14.4786 49.902 13.7226 50.126 12.8172 50.126C12.0799 50.126 11.4172 49.9627 10.8292 49.636C10.2506 49.3 9.79322 48.8333 9.45722 48.236C9.13055 47.6293 8.96722 46.9293 8.96722 46.136C8.96722 45.3427 9.12589 44.6473 9.44322 44.05C9.76989 43.4433 10.2226 42.9767 10.8012 42.65C11.3892 42.3233 12.0612 42.16 12.8172 42.16C13.5452 42.16 14.1939 42.3187 14.7632 42.636C15.3326 42.9533 15.7759 43.4013 16.0932 43.98C16.4106 44.5493 16.5692 45.2073 16.5692 45.954ZM14.9032 45.45C14.8939 44.862 14.6839 44.3907 14.2732 44.036C13.8626 43.6813 13.3539 43.504 12.7472 43.504C12.1966 43.504 11.7252 43.6813 11.3332 44.036C10.9412 44.3813 10.7079 44.8527 10.6332 45.45H14.9032ZM20.0018 43.588V47.858C20.0018 48.1473 20.0672 48.3573 20.1978 48.488C20.3378 48.6093 20.5712 48.67 20.8978 48.67H21.8778V50H20.6178C19.8992 50 19.3485 49.832 18.9658 49.496C18.5832 49.16 18.3918 48.614 18.3918 47.858V43.588H17.4818V42.286H18.3918V40.368H20.0018V42.286H21.8778V43.588H20.0018ZM30.1635 40.27C31.1995 40.27 32.1049 40.4707 32.8795 40.872C33.6635 41.264 34.2655 41.8333 34.6855 42.58C35.1149 43.3173 35.3295 44.1807 35.3295 45.17C35.3295 46.1593 35.1149 47.018 34.6855 47.746C34.2655 48.474 33.6635 49.034 32.8795 49.426C32.1049 49.8087 31.1995 50 30.1635 50H26.9855V40.27H30.1635ZM30.1635 48.698C31.3022 48.698 32.1749 48.39 32.7815 47.774C33.3882 47.158 33.6915 46.29 33.6915 45.17C33.6915 44.0407 33.3882 43.1587 32.7815 42.524C32.1749 41.8893 31.3022 41.572 30.1635 41.572H28.5815V48.698H30.1635ZM36.3793 46.108C36.3793 45.3333 36.538 44.6473 36.8553 44.05C37.182 43.4527 37.6207 42.9907 38.1713 42.664C38.7313 42.328 39.3473 42.16 40.0193 42.16C40.626 42.16 41.1533 42.2813 41.6013 42.524C42.0587 42.7573 42.4227 43.0513 42.6933 43.406V42.286H44.3033V50H42.6933V48.852C42.4227 49.216 42.054 49.5193 41.5873 49.762C41.1207 50.0047 40.5887 50.126 39.9913 50.126C39.3287 50.126 38.722 49.958 38.1713 49.622C37.6207 49.2767 37.182 48.8007 36.8553 48.194C36.538 47.578 36.3793 46.8827 36.3793 46.108ZM42.6933 46.136C42.6933 45.604 42.5813 45.142 42.3573 44.75C42.1427 44.358 41.858 44.0593 41.5033 43.854C41.1487 43.6487 40.766 43.546 40.3553 43.546C39.9447 43.546 39.562 43.6487 39.2073 43.854C38.8527 44.05 38.5633 44.344 38.3393 44.736C38.1247 45.1187 38.0173 45.576 38.0173 46.108C38.0173 46.64 38.1247 47.1067 38.3393 47.508C38.5633 47.9093 38.8527 48.2173 39.2073 48.432C39.5713 48.6373 39.954 48.74 40.3553 48.74C40.766 48.74 41.1487 48.6373 41.5033 48.432C41.858 48.2267 42.1427 47.928 42.3573 47.536C42.5813 47.1347 42.6933 46.668 42.6933 46.136ZM48.2616 43.588V47.858C48.2616 48.1473 48.3269 48.3573 48.4576 48.488C48.5976 48.6093 48.8309 48.67 49.1576 48.67H50.1376V50H48.8776C48.1589 50 47.6083 49.832 47.2256 49.496C46.8429 49.16 46.6516 48.614 46.6516 47.858V43.588H45.7416V42.286H46.6516V40.368H48.2616V42.286H50.1376V43.588H48.2616ZM58.6786 45.954C58.6786 46.2433 58.6599 46.5047 58.6226 46.738H52.7286C52.7753 47.354 53.0039 47.8487 53.4146 48.222C53.8253 48.5953 54.3293 48.782 54.9266 48.782C55.7853 48.782 56.3919 48.4227 56.7466 47.704H58.4686C58.2353 48.4133 57.8106 48.9967 57.1946 49.454C56.5879 49.902 55.8319 50.126 54.9266 50.126C54.1893 50.126 53.5266 49.9627 52.9386 49.636C52.3599 49.3 51.9026 48.8333 51.5666 48.236C51.2399 47.6293 51.0766 46.9293 51.0766 46.136C51.0766 45.3427 51.2353 44.6473 51.5526 44.05C51.8793 43.4433 52.3319 42.9767 52.9106 42.65C53.4986 42.3233 54.1706 42.16 54.9266 42.16C55.6546 42.16 56.3033 42.3187 56.8726 42.636C57.4419 42.9533 57.8853 43.4013 58.2026 43.98C58.5199 44.5493 58.6786 45.2073 58.6786 45.954ZM57.0126 45.45C57.0033 44.862 56.7933 44.3907 56.3826 44.036C55.9719 43.6813 55.4633 43.504 54.8566 43.504C54.3059 43.504 53.8346 43.6813 53.4426 44.036C53.0506 44.3813 52.8173 44.8527 52.7426 45.45H57.0126Z" fill="black"/>
<path d="M6.5 7.96C7.98 7.96 9.27333 8.25333 10.38 8.84C11.4867 9.42667 12.34 10.2533 12.94 11.32C13.5533 12.3733 13.86 13.5933 13.86 14.98C13.86 16.3533 13.5533 17.5733 12.94 18.64C12.34 19.7067 11.48 20.5333 10.36 21.12C9.25333 21.7067 7.96667 22 6.5 22H1.24V7.96H6.5ZM6.28 19.04C7.57333 19.04 8.58 18.6867 9.3 17.98C10.02 17.2733 10.38 16.2733 10.38 14.98C10.38 13.6867 10.02 12.68 9.3 11.96C8.58 11.24 7.57333 10.88 6.28 10.88H4.66V19.04H6.28ZM15.0913 16.4C15.0913 15.2533 15.3046 14.2467 15.7313 13.38C16.1713 12.5133 16.7646 11.8467 17.5113 11.38C18.2579 10.9133 19.0913 10.68 20.0113 10.68C20.7979 10.68 21.4846 10.84 22.0713 11.16C22.6713 11.48 23.1313 11.9 23.4513 12.42V10.84H26.8713V22H23.4513V20.42C23.1179 20.94 22.6513 21.36 22.0513 21.68C21.4646 22 20.7779 22.16 19.9913 22.16C19.0846 22.16 18.2579 21.9267 17.5113 21.46C16.7646 20.98 16.1713 20.3067 15.7313 19.44C15.3046 18.56 15.0913 17.5467 15.0913 16.4ZM23.4513 16.42C23.4513 15.5667 23.2113 14.8933 22.7313 14.4C22.2646 13.9067 21.6913 13.66 21.0113 13.66C20.3313 13.66 19.7513 13.9067 19.2713 14.4C18.8046 14.88 18.5713 15.5467 18.5713 16.4C18.5713 17.2533 18.8046 17.9333 19.2713 18.44C19.7513 18.9333 20.3313 19.18 21.0113 19.18C21.6913 19.18 22.2646 18.9333 22.7313 18.44C23.2113 17.9467 23.4513 17.2733 23.4513 16.42ZM35.5655 19.1V22H33.8255C32.5855 22 31.6188 21.7 30.9255 21.1C30.2321 20.4867 29.8855 19.4933 29.8855 18.12V13.68H28.5255V10.84H29.8855V8.12H33.3055V10.84H35.5455V13.68H33.3055V18.16C33.3055 18.4933 33.3855 18.7333 33.5455 18.88C33.7055 19.0267 33.9721 19.1 34.3455 19.1H35.5655ZM47.9905 16.24C47.9905 16.56 47.9705 16.8933 47.9305 17.24H40.1905C40.2438 17.9333 40.4638 18.4667 40.8505 18.84C41.2505 19.2 41.7371 19.38 42.3105 19.38C43.1638 19.38 43.7571 19.02 44.0905 18.3H47.7305C47.5438 19.0333 47.2038 19.6933 46.7105 20.28C46.2305 20.8667 45.6238 21.3267 44.8905 21.66C44.1571 21.9933 43.3371 22.16 42.4305 22.16C41.3371 22.16 40.3638 21.9267 39.5105 21.46C38.6571 20.9933 37.9905 20.3267 37.5105 19.46C37.0305 18.5933 36.7905 17.58 36.7905 16.42C36.7905 15.26 37.0238 14.2467 37.4905 13.38C37.9705 12.5133 38.6371 11.8467 39.4905 11.38C40.3438 10.9133 41.3238 10.68 42.4305 10.68C43.5105 10.68 44.4705 10.9067 45.3105 11.36C46.1505 11.8133 46.8038 12.46 47.2705 13.3C47.7505 14.14 47.9905 15.12 47.9905 16.24ZM44.4905 15.34C44.4905 14.7533 44.2905 14.2867 43.8905 13.94C43.4905 13.5933 42.9905 13.42 42.3905 13.42C41.8171 13.42 41.3305 13.5867 40.9305 13.92C40.5438 14.2533 40.3038 14.7267 40.2105 15.34H44.4905Z" fill="black"/>
</svg>
