<svg width="166" height="56" viewBox="0 0 166 56" fill="none" xmlns="http://www.w3.org/2000/svg">
<g opacity="0.5">
<path d="M156 30C152.123 30 148.969 33.1542 148.969 37.0312C148.969 38.3412 149.332 39.6195 150.018 40.7286L155.6 49.723C155.707 49.8953 155.895 50 156.098 50C156.099 50 156.101 50 156.102 50C156.307 49.9984 156.495 49.8905 156.6 49.7152L162.039 40.6336C162.688 39.548 163.031 38.3023 163.031 37.0312C163.031 33.1542 159.877 30 156 30ZM161.034 40.032L156.089 48.2885L151.014 40.1112C150.443 39.188 150.133 38.123 150.133 37.0312C150.133 33.8004 152.769 31.1641 156 31.1641C159.231 31.1641 161.863 33.8004 161.863 37.0312C161.863 38.0907 161.574 39.1284 161.034 40.032Z" fill="black"/>
<path d="M156 33.5156C154.061 33.5156 152.484 35.0927 152.484 37.0312C152.484 38.9574 154.036 40.5469 156 40.5469C157.988 40.5469 159.516 38.9362 159.516 37.0312C159.516 35.0927 157.939 33.5156 156 33.5156ZM156 39.3828C154.701 39.3828 153.648 38.3268 153.648 37.0312C153.648 35.7389 154.708 34.6797 156 34.6797C157.292 34.6797 158.348 35.7389 158.348 37.0312C158.348 38.3079 157.32 39.3828 156 39.3828Z" fill="black"/>
</g>
<path opacity="0.5" d="M8.26 40.27L5.04 46.472V50H3.444V46.472L0.21 40.27H1.988L4.242 45.044L6.496 40.27H8.26ZM12.8726 50.126C12.1446 50.126 11.4866 49.9627 10.8986 49.636C10.3106 49.3 9.84856 48.8333 9.51256 48.236C9.17656 47.6293 9.00856 46.9293 9.00856 46.136C9.00856 45.352 9.18123 44.6567 9.52656 44.05C9.8719 43.4433 10.3432 42.9767 10.9406 42.65C11.5379 42.3233 12.2052 42.16 12.9426 42.16C13.6799 42.16 14.3472 42.3233 14.9446 42.65C15.5419 42.9767 16.0132 43.4433 16.3586 44.05C16.7039 44.6567 16.8766 45.352 16.8766 46.136C16.8766 46.92 16.6992 47.6153 16.3446 48.222C15.9899 48.8287 15.5046 49.3 14.8886 49.636C14.2819 49.9627 13.6099 50.126 12.8726 50.126ZM12.8726 48.74C13.2832 48.74 13.6659 48.642 14.0206 48.446C14.3846 48.25 14.6786 47.956 14.9026 47.564C15.1266 47.172 15.2386 46.696 15.2386 46.136C15.2386 45.576 15.1312 45.1047 14.9166 44.722C14.7019 44.33 14.4172 44.036 14.0626 43.84C13.7079 43.644 13.3252 43.546 12.9146 43.546C12.5039 43.546 12.1212 43.644 11.7666 43.84C11.4212 44.036 11.1459 44.33 10.9406 44.722C10.7352 45.1047 10.6326 45.576 10.6326 46.136C10.6326 46.9667 10.8426 47.6107 11.2626 48.068C11.6919 48.516 12.2286 48.74 12.8726 48.74ZM25.4403 42.286V50H23.8443V49.09C23.5923 49.4073 23.261 49.6593 22.8503 49.846C22.449 50.0233 22.0196 50.112 21.5623 50.112C20.9556 50.112 20.4096 49.986 19.9243 49.734C19.4483 49.482 19.0703 49.1087 18.7903 48.614C18.5196 48.1193 18.3843 47.522 18.3843 46.822V42.286H19.9663V46.584C19.9663 47.2747 20.139 47.8067 20.4843 48.18C20.8296 48.544 21.301 48.726 21.8983 48.726C22.4956 48.726 22.967 48.544 23.3123 48.18C23.667 47.8067 23.8443 47.2747 23.8443 46.584V42.286H25.4403ZM29.1421 43.406C29.3754 43.014 29.6834 42.7107 30.0661 42.496C30.4581 42.272 30.9201 42.16 31.4521 42.16V43.812H31.0461C30.4208 43.812 29.9448 43.9707 29.6181 44.288C29.3008 44.6053 29.1421 45.156 29.1421 45.94V50H27.5461V42.286H29.1421V43.406ZM39.7339 40.27C40.7699 40.27 41.6752 40.4707 42.4499 40.872C43.2339 41.264 43.8359 41.8333 44.2559 42.58C44.6852 43.3173 44.8999 44.1807 44.8999 45.17C44.8999 46.1593 44.6852 47.018 44.2559 47.746C43.8359 48.474 43.2339 49.034 42.4499 49.426C41.6752 49.8087 40.7699 50 39.7339 50H36.5559V40.27H39.7339ZM39.7339 48.698C40.8725 48.698 41.7452 48.39 42.3519 47.774C42.9585 47.158 43.2619 46.29 43.2619 45.17C43.2619 44.0407 42.9585 43.1587 42.3519 42.524C41.7452 41.8893 40.8725 41.572 39.7339 41.572H38.1519V48.698H39.7339ZM53.5516 45.954C53.5516 46.2433 53.533 46.5047 53.4956 46.738H47.6016C47.6483 47.354 47.877 47.8487 48.2876 48.222C48.6983 48.5953 49.2023 48.782 49.7996 48.782C50.6583 48.782 51.265 48.4227 51.6196 47.704H53.3416C53.1083 48.4133 52.6836 48.9967 52.0676 49.454C51.461 49.902 50.705 50.126 49.7996 50.126C49.0623 50.126 48.3996 49.9627 47.8116 49.636C47.233 49.3 46.7756 48.8333 46.4396 48.236C46.113 47.6293 45.9496 46.9293 45.9496 46.136C45.9496 45.3427 46.1083 44.6473 46.4256 44.05C46.7523 43.4433 47.205 42.9767 47.7836 42.65C48.3716 42.3233 49.0436 42.16 49.7996 42.16C50.5276 42.16 51.1763 42.3187 51.7456 42.636C52.315 42.9533 52.7583 43.4013 53.0756 43.98C53.393 44.5493 53.5516 45.2073 53.5516 45.954ZM51.8856 45.45C51.8763 44.862 51.6663 44.3907 51.2556 44.036C50.845 43.6813 50.3363 43.504 49.7296 43.504C49.179 43.504 48.7076 43.6813 48.3156 44.036C47.9236 44.3813 47.6903 44.8527 47.6156 45.45H51.8856ZM57.9223 50.126C57.3156 50.126 56.7696 50.0187 56.2843 49.804C55.8083 49.58 55.4303 49.2813 55.1503 48.908C54.8703 48.5253 54.7209 48.1007 54.7023 47.634H56.3543C56.3823 47.9607 56.5363 48.236 56.8163 48.46C57.1056 48.6747 57.4649 48.782 57.8943 48.782C58.3423 48.782 58.6876 48.698 58.9303 48.53C59.1823 48.3527 59.3083 48.1287 59.3083 47.858C59.3083 47.5687 59.1683 47.354 58.8883 47.214C58.6176 47.074 58.1836 46.92 57.5863 46.752C57.0076 46.5933 56.5363 46.4393 56.1723 46.29C55.8083 46.1407 55.4909 45.912 55.2203 45.604C54.9589 45.296 54.8283 44.89 54.8283 44.386C54.8283 43.9753 54.9496 43.602 55.1923 43.266C55.4349 42.9207 55.7803 42.65 56.2283 42.454C56.6856 42.258 57.2083 42.16 57.7963 42.16C58.6736 42.16 59.3783 42.384 59.9103 42.832C60.4516 43.2707 60.7409 43.8727 60.7783 44.638H59.1823C59.1543 44.2927 59.0143 44.0173 58.7623 43.812C58.5103 43.6067 58.1696 43.504 57.7403 43.504C57.3203 43.504 56.9983 43.5833 56.7743 43.742C56.5503 43.9007 56.4383 44.1107 56.4383 44.372C56.4383 44.5773 56.5129 44.75 56.6623 44.89C56.8116 45.03 56.9936 45.142 57.2083 45.226C57.4229 45.3007 57.7403 45.3987 58.1603 45.52C58.7203 45.6693 59.1776 45.8233 59.5323 45.982C59.8963 46.1313 60.2089 46.3553 60.4703 46.654C60.7316 46.9527 60.8669 47.3493 60.8763 47.844C60.8763 48.2827 60.7549 48.6747 60.5123 49.02C60.2696 49.3653 59.9243 49.636 59.4763 49.832C59.0376 50.028 58.5196 50.126 57.9223 50.126ZM64.4628 43.588V47.858C64.4628 48.1473 64.5281 48.3573 64.6588 48.488C64.7988 48.6093 65.0321 48.67 65.3588 48.67H66.3388V50H65.0788C64.3601 50 63.8094 49.832 63.4268 49.496C63.0441 49.16 62.8528 48.614 62.8528 47.858V43.588H61.9428V42.286H62.8528V40.368H64.4628V42.286H66.3388V43.588H64.4628ZM68.6218 41.264C68.3324 41.264 68.0898 41.166 67.8938 40.97C67.6978 40.774 67.5998 40.5313 67.5998 40.242C67.5998 39.9527 67.6978 39.71 67.8938 39.514C68.0898 39.318 68.3324 39.22 68.6218 39.22C68.9018 39.22 69.1398 39.318 69.3358 39.514C69.5318 39.71 69.6298 39.9527 69.6298 40.242C69.6298 40.5313 69.5318 40.774 69.3358 40.97C69.1398 41.166 68.9018 41.264 68.6218 41.264ZM69.4058 42.286V50H67.8098V42.286H69.4058ZM75.3932 42.16C75.9998 42.16 76.5412 42.286 77.0172 42.538C77.5025 42.79 77.8805 43.1633 78.1512 43.658C78.4218 44.1527 78.5572 44.75 78.5572 45.45V50H76.9752V45.688C76.9752 44.9973 76.8025 44.47 76.4572 44.106C76.1118 43.7327 75.6405 43.546 75.0432 43.546C74.4458 43.546 73.9698 43.7327 73.6152 44.106C73.2698 44.47 73.0972 44.9973 73.0972 45.688V50H71.5012V42.286H73.0972V43.168C73.3585 42.8507 73.6898 42.6033 74.0912 42.426C74.5018 42.2487 74.9358 42.16 75.3932 42.16ZM80.061 46.108C80.061 45.3333 80.2196 44.6473 80.537 44.05C80.8636 43.4527 81.3023 42.9907 81.853 42.664C82.413 42.328 83.029 42.16 83.701 42.16C84.3076 42.16 84.835 42.2813 85.283 42.524C85.7403 42.7573 86.1043 43.0513 86.375 43.406V42.286H87.985V50H86.375V48.852C86.1043 49.216 85.7356 49.5193 85.269 49.762C84.8023 50.0047 84.2703 50.126 83.673 50.126C83.0103 50.126 82.4036 49.958 81.853 49.622C81.3023 49.2767 80.8636 48.8007 80.537 48.194C80.2196 47.578 80.061 46.8827 80.061 46.108ZM86.375 46.136C86.375 45.604 86.263 45.142 86.039 44.75C85.8243 44.358 85.5396 44.0593 85.185 43.854C84.8303 43.6487 84.4476 43.546 84.037 43.546C83.6263 43.546 83.2436 43.6487 82.889 43.854C82.5343 44.05 82.245 44.344 82.021 44.736C81.8063 45.1187 81.699 45.576 81.699 46.108C81.699 46.64 81.8063 47.1067 82.021 47.508C82.245 47.9093 82.5343 48.2173 82.889 48.432C83.253 48.6373 83.6356 48.74 84.037 48.74C84.4476 48.74 84.8303 48.6373 85.185 48.432C85.5396 48.2267 85.8243 47.928 86.039 47.536C86.263 47.1347 86.375 46.668 86.375 46.136ZM91.9433 43.588V47.858C91.9433 48.1473 92.0086 48.3573 92.1393 48.488C92.2793 48.6093 92.5126 48.67 92.8393 48.67H93.8193V50H92.5593C91.8406 50 91.2899 49.832 90.9073 49.496C90.5246 49.16 90.3333 48.614 90.3333 47.858V43.588H89.4233V42.286H90.3333V40.368H91.9433V42.286H93.8193V43.588H91.9433ZM96.1022 41.264C95.8129 41.264 95.5702 41.166 95.3742 40.97C95.1782 40.774 95.0802 40.5313 95.0802 40.242C95.0802 39.9527 95.1782 39.71 95.3742 39.514C95.5702 39.318 95.8129 39.22 96.1022 39.22C96.3822 39.22 96.6202 39.318 96.8162 39.514C97.0122 39.71 97.1102 39.9527 97.1102 40.242C97.1102 40.5313 97.0122 40.774 96.8162 40.97C96.6202 41.166 96.3822 41.264 96.1022 41.264ZM96.8862 42.286V50H95.2902V42.286H96.8862ZM102.328 50.126C101.6 50.126 100.942 49.9627 100.354 49.636C99.7656 49.3 99.3036 48.8333 98.9676 48.236C98.6316 47.6293 98.4636 46.9293 98.4636 46.136C98.4636 45.352 98.6363 44.6567 98.9816 44.05C99.327 43.4433 99.7983 42.9767 100.396 42.65C100.993 42.3233 101.66 42.16 102.398 42.16C103.135 42.16 103.802 42.3233 104.4 42.65C104.997 42.9767 105.468 43.4433 105.814 44.05C106.159 44.6567 106.332 45.352 106.332 46.136C106.332 46.92 106.154 47.6153 105.8 48.222C105.445 48.8287 104.96 49.3 104.344 49.636C103.737 49.9627 103.065 50.126 102.328 50.126ZM102.328 48.74C102.738 48.74 103.121 48.642 103.476 48.446C103.84 48.25 104.134 47.956 104.358 47.564C104.582 47.172 104.694 46.696 104.694 46.136C104.694 45.576 104.586 45.1047 104.372 44.722C104.157 44.33 103.872 44.036 103.518 43.84C103.163 43.644 102.78 43.546 102.37 43.546C101.959 43.546 101.576 43.644 101.222 43.84C100.876 44.036 100.601 44.33 100.396 44.722C100.19 45.1047 100.088 45.576 100.088 46.136C100.088 46.9667 100.298 47.6107 100.718 48.068C101.147 48.516 101.684 48.74 102.328 48.74ZM111.801 42.16C112.408 42.16 112.949 42.286 113.425 42.538C113.911 42.79 114.289 43.1633 114.559 43.658C114.83 44.1527 114.965 44.75 114.965 45.45V50H113.383V45.688C113.383 44.9973 113.211 44.47 112.865 44.106C112.52 43.7327 112.049 43.546 111.451 43.546C110.854 43.546 110.378 43.7327 110.023 44.106C109.678 44.47 109.505 44.9973 109.505 45.688V50H107.909V42.286H109.505V43.168C109.767 42.8507 110.098 42.6033 110.499 42.426C110.91 42.2487 111.344 42.16 111.801 42.16Z" fill="black"/>
<path d="M4.66 19.36H9.14V22H1.24V7.96H4.66V19.36ZM15.8513 22.16C14.7579 22.16 13.7713 21.9267 12.8913 21.46C12.0246 20.9933 11.3379 20.3267 10.8313 19.46C10.3379 18.5933 10.0913 17.58 10.0913 16.42C10.0913 15.2733 10.3446 14.2667 10.8512 13.4C11.3579 12.52 12.0513 11.8467 12.9313 11.38C13.8113 10.9133 14.7979 10.68 15.8913 10.68C16.9846 10.68 17.9713 10.9133 18.8513 11.38C19.7313 11.8467 20.4246 12.52 20.9313 13.4C21.4379 14.2667 21.6913 15.2733 21.6913 16.42C21.6913 17.5667 21.4313 18.58 20.9113 19.46C20.4046 20.3267 19.7046 20.9933 18.8113 21.46C17.9313 21.9267 16.9446 22.16 15.8513 22.16ZM15.8513 19.2C16.5046 19.2 17.0579 18.96 17.5113 18.48C17.9779 18 18.2113 17.3133 18.2113 16.42C18.2113 15.5267 17.9846 14.84 17.5313 14.36C17.0913 13.88 16.5446 13.64 15.8913 13.64C15.2246 13.64 14.6713 13.88 14.2313 14.36C13.7913 14.8267 13.5713 15.5133 13.5713 16.42C13.5713 17.3133 13.7846 18 14.2113 18.48C14.6513 18.96 15.1979 19.2 15.8513 19.2ZM22.8256 16.42C22.8256 15.26 23.059 14.2467 23.5256 13.38C24.0056 12.5133 24.6656 11.8467 25.5056 11.38C26.359 10.9133 27.3323 10.68 28.4256 10.68C29.8256 10.68 30.9923 11.0467 31.9256 11.78C32.8723 12.5133 33.4923 13.5467 33.7856 14.88H30.1456C29.839 14.0267 29.2456 13.6 28.3656 13.6C27.739 13.6 27.239 13.8467 26.8656 14.34C26.4923 14.82 26.3056 15.5133 26.3056 16.42C26.3056 17.3267 26.4923 18.0267 26.8656 18.52C27.239 19 27.739 19.24 28.3656 19.24C29.2456 19.24 29.839 18.8133 30.1456 17.96H33.7856C33.4923 19.2667 32.8723 20.2933 31.9256 21.04C30.979 21.7867 29.8123 22.16 28.4256 22.16C27.3323 22.16 26.359 21.9267 25.5056 21.46C24.6656 20.9933 24.0056 20.3267 23.5256 19.46C23.059 18.5933 22.8256 17.58 22.8256 16.42ZM34.935 16.4C34.935 15.2533 35.1483 14.2467 35.575 13.38C36.015 12.5133 36.6083 11.8467 37.355 11.38C38.1017 10.9133 38.935 10.68 39.855 10.68C40.6417 10.68 41.3283 10.84 41.915 11.16C42.515 11.48 42.975 11.9 43.295 12.42V10.84H46.715V22H43.295V20.42C42.9617 20.94 42.495 21.36 41.895 21.68C41.3083 22 40.6217 22.16 39.835 22.16C38.9283 22.16 38.1017 21.9267 37.355 21.46C36.6083 20.98 36.015 20.3067 35.575 19.44C35.1483 18.56 34.935 17.5467 34.935 16.4ZM43.295 16.42C43.295 15.5667 43.055 14.8933 42.575 14.4C42.1083 13.9067 41.535 13.66 40.855 13.66C40.175 13.66 39.595 13.9067 39.115 14.4C38.6483 14.88 38.415 15.5467 38.415 16.4C38.415 17.2533 38.6483 17.9333 39.115 18.44C39.595 18.9333 40.175 19.18 40.855 19.18C41.535 19.18 42.1083 18.9333 42.575 18.44C43.055 17.9467 43.295 17.2733 43.295 16.42ZM55.4092 19.1V22H53.6692C52.4292 22 51.4626 21.7 50.7692 21.1C50.0759 20.4867 49.7292 19.4933 49.7292 18.12V13.68H48.3692V10.84H49.7292V8.12H53.1492V10.84H55.3892V13.68H53.1492V18.16C53.1492 18.4933 53.2292 18.7333 53.3892 18.88C53.5492 19.0267 53.8159 19.1 54.1892 19.1H55.4092ZM59.0342 9.68C58.4342 9.68 57.9409 9.50667 57.5542 9.16C57.1809 8.8 56.9942 8.36 56.9942 7.84C56.9942 7.30667 57.1809 6.86667 57.5542 6.52C57.9409 6.16 58.4342 5.98 59.0342 5.98C59.6209 5.98 60.1009 6.16 60.4742 6.52C60.8609 6.86667 61.0542 7.30667 61.0542 7.84C61.0542 8.36 60.8609 8.8 60.4742 9.16C60.1009 9.50667 59.6209 9.68 59.0342 9.68ZM60.7342 10.84V22H57.3142V10.84H60.7342ZM68.2927 22.16C67.1993 22.16 66.2127 21.9267 65.3327 21.46C64.466 20.9933 63.7793 20.3267 63.2727 19.46C62.7793 18.5933 62.5327 17.58 62.5327 16.42C62.5327 15.2733 62.786 14.2667 63.2927 13.4C63.7993 12.52 64.4927 11.8467 65.3727 11.38C66.2527 10.9133 67.2393 10.68 68.3327 10.68C69.426 10.68 70.4127 10.9133 71.2927 11.38C72.1727 11.8467 72.866 12.52 73.3727 13.4C73.8793 14.2667 74.1327 15.2733 74.1327 16.42C74.1327 17.5667 73.8727 18.58 73.3527 19.46C72.846 20.3267 72.146 20.9933 71.2527 21.46C70.3727 21.9267 69.386 22.16 68.2927 22.16ZM68.2927 19.2C68.946 19.2 69.4993 18.96 69.9527 18.48C70.4193 18 70.6527 17.3133 70.6527 16.42C70.6527 15.5267 70.426 14.84 69.9727 14.36C69.5327 13.88 68.986 13.64 68.3327 13.64C67.666 13.64 67.1127 13.88 66.6727 14.36C66.2327 14.8267 66.0127 15.5133 66.0127 16.42C66.0127 17.3133 66.226 18 66.6527 18.48C67.0927 18.96 67.6393 19.2 68.2927 19.2ZM82.747 10.72C84.0537 10.72 85.0937 11.1467 85.867 12C86.6537 12.84 87.047 14 87.047 15.48V22H83.647V15.94C83.647 15.1933 83.4537 14.6133 83.067 14.2C82.6804 13.7867 82.1604 13.58 81.507 13.58C80.8537 13.58 80.3337 13.7867 79.947 14.2C79.5604 14.6133 79.367 15.1933 79.367 15.94V22H75.947V10.84H79.367V12.32C79.7137 11.8267 80.1804 11.44 80.767 11.16C81.3537 10.8667 82.0137 10.72 82.747 10.72Z" fill="black"/>
</svg>
