<svg width="70" height="70" viewBox="0 0 70 70" fill="none" xmlns="http://www.w3.org/2000/svg">
<rect width="70" height="70" rx="20" fill="#FC8868"/>
<path d="M46.139 44.6665L40.5852 39.1126C41.9623 37.4116 42.7915 35.2502 42.7915 32.8961C42.7915 27.4399 38.3519 23.0003 32.8957 23.0003C27.4395 23.0003 23 27.4398 23 32.896C23 38.3522 27.4396 42.7918 32.8958 42.7918C35.2499 42.7918 37.4113 41.9626 39.1123 40.5855L44.6662 46.1393C44.8693 46.3425 45.1359 46.4446 45.4026 46.4446C45.6693 46.4446 45.936 46.3425 46.1391 46.1393C46.5464 45.7321 46.5464 45.0737 46.139 44.6665ZM32.8958 40.7084C28.5874 40.7084 25.0833 37.2043 25.0833 32.896C25.0833 28.5877 28.5874 25.0836 32.8958 25.0836C37.2041 25.0836 40.7082 28.5877 40.7082 32.896C40.7082 37.2043 37.204 40.7084 32.8958 40.7084Z" fill="white"/>
</svg>
